<mxfile host="app.diagrams.net" modified="2021-04-16T12:13:19.424Z" agent="5.0 (Windows NT 10.0; Win64; x64) AppleWebKit/537.36 (KHTML, like Gecko) Chrome/90.0.4430.72 Safari/537.36" etag="y8wMsQjZ2HsmRvwJw-_A" version="14.6.1" type="github">
  <diagram id="s8f0CIC16aSMOhJNGhLJ" name="Page-1">
    <mxGraphModel dx="1038" dy="548" grid="1" gridSize="10" guides="1" tooltips="1" connect="1" arrows="1" fold="1" page="1" pageScale="1" pageWidth="827" pageHeight="1169" math="0" shadow="0">
      <root>
        <mxCell id="0" />
        <mxCell id="1" parent="0" />
        <mxCell id="7FV0GzH9AXjd8qyWBF3Z-1" value="个人信息界面" style="shape=umlLifeline;perimeter=lifelinePerimeter;container=1;collapsible=0;recursiveResize=0;rounded=0;shadow=0;strokeWidth=1;" vertex="1" parent="1">
          <mxGeometry x="350" y="90" width="100" height="380" as="geometry" />
        </mxCell>
        <mxCell id="7FV0GzH9AXjd8qyWBF3Z-2" value="" style="points=[];perimeter=orthogonalPerimeter;rounded=0;shadow=0;strokeWidth=1;" vertex="1" parent="7FV0GzH9AXjd8qyWBF3Z-1">
          <mxGeometry x="45" y="80" width="10" height="230" as="geometry" />
        </mxCell>
        <mxCell id="7FV0GzH9AXjd8qyWBF3Z-7" value="用户" style="shape=umlActor;verticalLabelPosition=bottom;verticalAlign=top;html=1;outlineConnect=0;fontStyle=0;fontFamily=Helvetica;" vertex="1" parent="1">
          <mxGeometry x="170" y="70" width="30" height="60" as="geometry" />
        </mxCell>
        <mxCell id="7FV0GzH9AXjd8qyWBF3Z-8" value="" style="endArrow=none;dashed=1;html=1;fontFamily=Helvetica;" edge="1" parent="1" target="7FV0GzH9AXjd8qyWBF3Z-7">
          <mxGeometry width="50" height="50" relative="1" as="geometry">
            <mxPoint x="185" y="460" as="sourcePoint" />
            <mxPoint x="184.5" y="160" as="targetPoint" />
          </mxGeometry>
        </mxCell>
        <mxCell id="7FV0GzH9AXjd8qyWBF3Z-9" value="" style="html=1;points=[];perimeter=orthogonalPerimeter;fontFamily=Helvetica;" vertex="1" parent="1">
          <mxGeometry x="180" y="170" width="10" height="230" as="geometry" />
        </mxCell>
        <mxCell id="7FV0GzH9AXjd8qyWBF3Z-10" value="点击登出按钮" style="verticalAlign=bottom;endArrow=block;shadow=0;strokeWidth=1;exitX=1.08;exitY=0.01;exitDx=0;exitDy=0;exitPerimeter=0;entryX=-0.22;entryY=0.009;entryDx=0;entryDy=0;entryPerimeter=0;" edge="1" parent="1" source="7FV0GzH9AXjd8qyWBF3Z-9" target="7FV0GzH9AXjd8qyWBF3Z-2">
          <mxGeometry relative="1" as="geometry">
            <mxPoint x="220" y="200.0000000000001" as="sourcePoint" />
            <mxPoint x="340" y="200" as="targetPoint" />
            <Array as="points">
              <mxPoint x="250" y="173" />
            </Array>
          </mxGeometry>
        </mxCell>
        <mxCell id="7FV0GzH9AXjd8qyWBF3Z-12" value="返回是否确定登出界面框" style="html=1;verticalAlign=bottom;endArrow=open;dashed=1;endSize=8;fontFamily=Helvetica;entryX=1.24;entryY=0.262;entryDx=0;entryDy=0;entryPerimeter=0;" edge="1" parent="1" target="7FV0GzH9AXjd8qyWBF3Z-9">
          <mxGeometry relative="1" as="geometry">
            <mxPoint x="390" y="230" as="sourcePoint" />
            <mxPoint x="200" y="230" as="targetPoint" />
            <Array as="points">
              <mxPoint x="310" y="230" />
            </Array>
          </mxGeometry>
        </mxCell>
        <mxCell id="7FV0GzH9AXjd8qyWBF3Z-13" value="离开个人信息界面" style="html=1;verticalAlign=bottom;endArrow=open;dashed=1;endSize=8;fontFamily=Helvetica;" edge="1" parent="1">
          <mxGeometry relative="1" as="geometry">
            <mxPoint x="390" y="360" as="sourcePoint" />
            <mxPoint x="190" y="360" as="targetPoint" />
            <Array as="points">
              <mxPoint x="268" y="360" />
            </Array>
          </mxGeometry>
        </mxCell>
        <mxCell id="7FV0GzH9AXjd8qyWBF3Z-15" value="刷新数据" style="html=1;verticalAlign=bottom;endArrow=open;dashed=1;endSize=8;fontFamily=Helvetica;" edge="1" parent="1" source="7FV0GzH9AXjd8qyWBF3Z-1">
          <mxGeometry relative="1" as="geometry">
            <mxPoint x="340" y="400" as="sourcePoint" />
            <mxPoint x="190" y="400" as="targetPoint" />
          </mxGeometry>
        </mxCell>
        <mxCell id="7FV0GzH9AXjd8qyWBF3Z-18" value="否" style="verticalAlign=bottom;endArrow=block;shadow=0;strokeWidth=1;entryX=-0.22;entryY=0.009;entryDx=0;entryDy=0;entryPerimeter=0;" edge="1" parent="1">
          <mxGeometry x="-0.02" relative="1" as="geometry">
            <mxPoint x="190" y="260" as="sourcePoint" />
            <mxPoint x="389.99999999999994" y="260.00000000000006" as="targetPoint" />
            <Array as="points" />
            <mxPoint as="offset" />
          </mxGeometry>
        </mxCell>
        <mxCell id="7FV0GzH9AXjd8qyWBF3Z-24" value="是" style="verticalAlign=bottom;endArrow=block;shadow=0;strokeWidth=1;entryX=-0.22;entryY=0.009;entryDx=0;entryDy=0;entryPerimeter=0;" edge="1" parent="1">
          <mxGeometry relative="1" as="geometry">
            <mxPoint x="190" y="320" as="sourcePoint" />
            <mxPoint x="390" y="320" as="targetPoint" />
            <Array as="points" />
            <mxPoint as="offset" />
          </mxGeometry>
        </mxCell>
        <mxCell id="7FV0GzH9AXjd8qyWBF3Z-25" value="关闭界面框" style="html=1;verticalAlign=bottom;endArrow=open;dashed=1;endSize=8;fontFamily=Helvetica;" edge="1" parent="1">
          <mxGeometry relative="1" as="geometry">
            <mxPoint x="390" y="290" as="sourcePoint" />
            <mxPoint x="190" y="290" as="targetPoint" />
            <Array as="points">
              <mxPoint x="268" y="290" />
            </Array>
          </mxGeometry>
        </mxCell>
      </root>
    </mxGraphModel>
  </diagram>
</mxfile>
